<?xml version="1.0" encoding="utf-8"?>
<!-- Generator: Adobe Illustrator 15.1.0, SVG Export Plug-In . SVG Version: 6.00 Build 0)  -->
<!DOCTYPE svg PUBLIC "-//W3C//DTD SVG 1.1//EN" "http://www.w3.org/Graphics/SVG/1.1/DTD/svg11.dtd">
<svg version="1.1" id="Layer_1" xmlns="http://www.w3.org/2000/svg" xmlns:xlink="http://www.w3.org/1999/xlink" x="0px" y="0px"
	 width="162px" height="117px" viewBox="0 0 162 117" enable-background="new 0 0 162 117" xml:space="preserve">
<g>
	<path fill="#FFFFFF" d="M80.998,115.968c-21.202,0-41.169-5.876-56.222-16.545C9.443,88.555,1,74.016,1,58.484
		c0-15.533,8.444-30.071,23.777-40.939C39.829,6.875,59.796,1,80.998,1c21.205,0,41.172,5.875,56.225,16.544
		C152.555,28.412,161,42.951,161,58.482c0,15.532-8.445,30.07-23.777,40.939C122.17,110.092,102.203,115.968,80.998,115.968
		 M80.998,6.365c-41.152,0-74.633,23.38-74.633,52.119s33.481,52.118,74.633,52.118c41.154,0,74.637-23.379,74.637-52.118
		C155.633,29.746,122.152,6.365,80.998,6.365"/>
	<polygon fill="#FFFFFF" points="68.895,24.406 68.895,34.582 67.115,34.582 67.115,24.406 63.355,24.406 63.355,22.884 
		72.652,22.884 72.652,24.406 	"/>
	<polygon fill="#FFFFFF" points="81.746,34.582 81.746,29.466 75.714,29.466 75.714,34.582 73.936,34.582 73.936,22.884 
		75.714,22.884 75.714,27.945 81.746,27.945 81.746,22.884 83.525,22.884 83.525,34.582 	"/>
	<polygon fill="#FFFFFF" points="85.908,34.582 85.908,22.884 92.215,22.884 92.215,24.406 87.686,24.406 87.686,27.945 
		91.48,27.945 91.48,29.466 87.686,29.466 87.686,33.06 92.857,33.06 92.857,34.582 	"/>
	<polygon fill="#FFFFFF" points="62.988,81.011 62.988,91.188 61.21,91.188 61.21,81.011 57.452,81.011 57.452,79.488 
		66.747,79.488 66.747,81.011 	"/>
	<path fill="#FFFFFF" d="M74.814,91.188l-3.687-5.135H69.79v5.135h-1.76V79.488h3.52c0.416,0,0.831,0.068,1.247,0.201
		c0.416,0.136,0.791,0.338,1.128,0.604c0.336,0.271,0.61,0.613,0.826,1.026c0.212,0.416,0.32,0.898,0.32,1.447
		c0,0.782-0.198,1.422-0.596,1.916c-0.397,0.496-0.885,0.859-1.457,1.092l3.996,5.408h-2.201L74.814,91.188L74.814,91.188z
		 M73.091,82.038c-0.11-0.222-0.26-0.403-0.448-0.552c-0.19-0.146-0.408-0.256-0.65-0.328c-0.245-0.073-0.496-0.109-0.754-0.109
		h-1.447v3.557h1.447c0.258,0,0.508-0.032,0.754-0.102c0.242-0.066,0.46-0.173,0.65-0.32c0.188-0.146,0.338-0.332,0.448-0.561
		c0.11-0.227,0.165-0.491,0.165-0.797C73.256,82.52,73.201,82.257,73.091,82.038"/>
	<path fill="#FFFFFF" d="M86.777,88.895c-0.238,0.539-0.572,0.994-1,1.365c-0.428,0.373-0.932,0.658-1.512,0.854
		c-0.582,0.195-1.213,0.295-1.896,0.295c-0.686,0-1.318-0.1-1.898-0.295c-0.582-0.193-1.084-0.479-1.513-0.854
		c-0.429-0.371-0.761-0.826-1-1.365s-0.356-1.146-0.356-1.834v-7.57h1.778v7.39c0,0.868,0.248,1.577,0.742,2.126
		c0.496,0.553,1.25,0.826,2.265,0.826c1.016,0,1.772-0.273,2.272-0.826c0.5-0.55,0.754-1.258,0.754-2.126v-7.39h1.724v7.57
		C87.135,87.746,87.016,88.355,86.777,88.895"/>
	<path fill="#FFFFFF" d="M95.303,90.323c-0.678,0.636-1.666,0.954-2.961,0.954c-0.623,0-1.197-0.076-1.725-0.229
		c-0.525-0.151-0.941-0.333-1.246-0.54l-0.201-1.854c0.428,0.318,0.922,0.576,1.484,0.779c0.563,0.201,1.156,0.303,1.779,0.303
		c0.635,0,1.146-0.158,1.529-0.479c0.385-0.316,0.578-0.738,0.578-1.265c0-0.538-0.154-0.966-0.471-1.284
		c-0.313-0.316-0.814-0.586-1.514-0.807c-1.039-0.329-1.82-0.769-2.346-1.313c-0.525-0.542-0.789-1.236-0.789-2.08
		c0-0.402,0.074-0.795,0.221-1.173c0.146-0.38,0.373-0.713,0.678-1c0.309-0.287,0.689-0.519,1.146-0.696
		c0.459-0.177,0.992-0.267,1.604-0.267c0.574,0,1.088,0.071,1.531,0.212c0.445,0.141,0.773,0.291,0.98,0.449l-0.348,1.484
		c-0.209-0.15-0.521-0.306-0.93-0.463c-0.412-0.156-0.852-0.234-1.318-0.234c-0.588,0-1.047,0.154-1.381,0.46
		c-0.33,0.306-0.496,0.668-0.496,1.084c0,0.428,0.152,0.776,0.461,1.047c0.305,0.271,0.766,0.507,1.379,0.717
		c0.502,0.171,0.959,0.36,1.371,0.568c0.41,0.208,0.764,0.46,1.057,0.753c0.295,0.294,0.525,0.635,0.691,1.02
		c0.164,0.387,0.248,0.836,0.248,1.353C96.32,88.854,95.98,89.688,95.303,90.323"/>
	<polygon fill="#FFFFFF" points="102.242,81.011 102.242,91.188 100.465,91.188 100.465,81.011 96.705,81.011 96.705,79.488 
		106,79.488 106,81.011 	"/>
	<polygon fill="#FFFFFF" points="48.729,71.743 48.729,58.768 33.428,58.768 33.428,71.743 28.917,71.743 28.917,42.071 
		33.428,42.071 33.428,54.908 48.729,54.908 48.729,42.071 53.24,42.071 53.24,71.743 	"/>
	<path fill="#FFFFFF" d="M79.563,71.743l-3.209-7.675H64.82l-3.209,7.675h-4.418l12.648-30.091h1.629l12.648,30.091H79.563z
		 M71.891,53.232c-0.218-0.496-0.435-1.068-0.652-1.721c-0.217-0.651-0.418-1.287-0.604-1.907H70.54
		c-0.155,0.62-0.349,1.255-0.581,1.907c-0.232,0.652-0.458,1.227-0.675,1.721l-2.929,7.254h8.463L71.891,53.232z"/>
	<polygon fill="#FFFFFF" points="88.074,71.743 88.074,42.071 92.586,42.071 92.586,67.882 105.654,67.882 105.654,71.743 	"/>
	<path fill="#FFFFFF" d="M135.305,63.35c-0.896,1.905-2.084,3.521-3.555,4.836c-1.475,1.317-3.148,2.334-5.025,3.045
		c-1.875,0.713-3.805,1.07-5.789,1.07c-1.982,0-3.914-0.355-5.791-1.07c-1.875-0.711-3.551-1.728-5.021-3.045
		c-1.474-1.315-2.658-2.931-3.562-4.836c-0.896-1.908-1.347-4.07-1.347-6.488c0-2.387,0.449-4.535,1.347-6.442
		c0.901-1.906,2.088-3.519,3.562-4.836c1.472-1.317,3.146-2.333,5.021-3.046c1.877-0.713,3.809-1.069,5.791-1.069
		c1.984,0,3.914,0.356,5.789,1.069c1.877,0.713,3.551,1.729,5.025,3.046c1.471,1.317,2.656,2.93,3.555,4.836
		c0.9,1.907,1.35,4.056,1.35,6.442C136.654,59.277,136.205,61.441,135.305,63.35 M131.121,52.07c-0.65-1.426-1.512-2.628-2.58-3.604
		c-1.07-0.976-2.273-1.72-3.605-2.231c-1.334-0.512-2.666-0.768-4-0.768c-1.365,0-2.715,0.256-4.047,0.768
		c-1.332,0.512-2.525,1.255-3.58,2.231c-1.055,0.977-1.906,2.179-2.557,3.604c-0.652,1.427-0.977,3.055-0.977,4.884
		c0,1.83,0.324,3.463,0.977,4.907c0.65,1.439,1.502,2.649,2.557,3.627c1.055,0.976,2.248,1.722,3.58,2.232
		c1.332,0.512,2.682,0.766,4.047,0.766c1.334,0,2.666-0.254,4-0.766c1.332-0.513,2.533-1.258,3.605-2.232
		c1.068-0.979,1.93-2.188,2.58-3.627c0.65-1.442,0.977-3.077,0.977-4.907C132.098,55.125,131.771,53.497,131.121,52.07"/>
</g>
</svg>
